<svg fill="none" height="10" viewBox="0 0 9 10" width="9" xmlns="http://www.w3.org/2000/svg"><path d="m.324373 8.73212c-.184334.18434-.189756.49879 0 .68312.189755.18434.504207.18434.688537 0l3.46982-3.46981 3.46981 3.46981c.18434.18434.50421.18976.68854 0 .18434-.18975.18434-.49878 0-.68312l-3.46981-3.47523 3.46981-3.46982c.18434-.18433.18976-.49878 0-.68312-.18975-.189754-.5042-.189754-.68854 0l-3.46981 3.46982-3.46982-3.46982c-.18433-.189754-.504203-.195175-.688537 0-.184334.18976-.184334.49879 0 .68312l3.469817 3.46982z" fill="#000"/></svg>